<mxfile host="app.diagrams.net" agent="Mozilla/5.0 (Windows NT 10.0; Win64; x64) AppleWebKit/537.36 (KHTML, like Gecko) Chrome/134.0.0.0 Safari/537.36" version="26.2.9">
  <diagram name="Page-1" id="H9g8HbJfNoffAiImlzmZ">
    <mxGraphModel dx="1126" dy="656" grid="1" gridSize="10" guides="1" tooltips="1" connect="1" arrows="1" fold="1" page="1" pageScale="1" pageWidth="850" pageHeight="1100" math="0" shadow="0">
      <root>
        <mxCell id="0" />
        <mxCell id="1" parent="0" />
        <mxCell id="jwc7gpU3zESPqbMmV-2L-1" value="Agency Admin" style="html=1;whiteSpace=wrap;" vertex="1" parent="1">
          <mxGeometry x="40" y="40" width="80" height="40" as="geometry" />
        </mxCell>
        <mxCell id="jwc7gpU3zESPqbMmV-2L-2" value="AgencyPortal UI" style="html=1;whiteSpace=wrap;" vertex="1" parent="1">
          <mxGeometry x="360" y="40" width="80" height="40" as="geometry" />
        </mxCell>
        <mxCell id="jwc7gpU3zESPqbMmV-2L-3" value="AgencyPortal BE" style="html=1;whiteSpace=wrap;" vertex="1" parent="1">
          <mxGeometry x="520" y="40" width="80" height="40" as="geometry" />
        </mxCell>
        <mxCell id="jwc7gpU3zESPqbMmV-2L-4" value="Verifier (SICPA)" style="html=1;whiteSpace=wrap;" vertex="1" parent="1">
          <mxGeometry x="680" y="40" width="80" height="40" as="geometry" />
        </mxCell>
        <mxCell id="jwc7gpU3zESPqbMmV-2L-5" value="Agency Employee" style="html=1;whiteSpace=wrap;" vertex="1" parent="1">
          <mxGeometry x="200" y="40" width="80" height="40" as="geometry" />
        </mxCell>
        <mxCell id="jwc7gpU3zESPqbMmV-2L-10" value="&lt;span style=&quot;color: rgba(0, 0, 0, 0); font-family: monospace; font-size: 0px; text-align: start; text-wrap-mode: nowrap;&quot;&gt;%3CmxGraphModel%3E%3Croot%3E%3CmxCell%20id%3D%220%22%2F%3E%3CmxCell%20id%3D%221%22%20parent%3D%220%22%2F%3E%3CmxCell%20id%3D%222%22%20value%3D%22%22%20style%3D%22group%3Bmovable%3D0%3Bresizable%3D0%3Brotatable%3D0%3Bdeletable%3D0%3Beditable%3D0%3Blocked%3D1%3Bconnectable%3D0%3B%22%20vertex%3D%221%22%20connectable%3D%220%22%20parent%3D%221%22%3E%3CmxGeometry%20x%3D%22380%22%20y%3D%22320%22%20width%3D%22360%22%20height%3D%22100%22%20as%3D%22geometry%22%2F%3E%3C%2FmxCell%3E%3CmxCell%20id%3D%223%22%20value%3D%22Loop%22%20style%3D%22shape%3DumlFrame%3BwhiteSpace%3Dwrap%3Bhtml%3D1%3BpointerEvents%3D0%3Bdashed%3D1%3B%22%20vertex%3D%221%22%20parent%3D%222%22%3E%3CmxGeometry%20width%3D%22360%22%20height%3D%22100%22%20as%3D%22geometry%22%2F%3E%3C%2FmxCell%3E%3CmxCell%20id%3D%224%22%20value%3D%22%26lt%3Bspan%20style%3D%26quot%3Btext-align%3A%20left%3B%26quot%3B%26gt%3BRequest%20Status%26lt%3B%2Fspan%26gt%3B%22%20style%3D%22html%3D1%3BverticalAlign%3Dbottom%3BstartArrow%3Doval%3BstartFill%3D1%3BendArrow%3Dblock%3BstartSize%3D8%3Bcurved%3D0%3Brounded%3D0%3B%22%20edge%3D%221%22%20parent%3D%222%22%3E%3CmxGeometry%20x%3D%220.001%22%20width%3D%2260%22%20relative%3D%221%22%20as%3D%22geometry%22%3E%3CmxPoint%20x%3D%22180%22%20y%3D%2240.33000000000004%22%20as%3D%22sourcePoint%22%2F%3E%3CmxPoint%20x%3D%22340%22%20y%3D%2239.33000000000004%22%20as%3D%22targetPoint%22%2F%3E%3CmxPoint%20as%3D%22offset%22%2F%3E%3C%2FmxGeometry%3E%3C%2FmxCell%3E%3CmxCell%20id%3D%225%22%20value%3D%22%26lt%3Bspan%20style%3D%26quot%3Btext-align%3A%20left%3B%26quot%3B%26gt%3BFail%26lt%3B%2Fspan%26gt%3B%22%20style%3D%22html%3D1%3BverticalAlign%3Dbottom%3BstartArrow%3Doval%3BstartFill%3D1%3BendArrow%3Dblock%3BstartSize%3D8%3Bcurved%3D0%3Brounded%3D0%3Bdashed%3D1%3B%22%20edge%3D%221%22%20parent%3D%222%22%3E%3CmxGeometry%20x%3D%220.001%22%20width%3D%2260%22%20relative%3D%221%22%20as%3D%22geometry%22%3E%3CmxPoint%20x%3D%22340%22%20y%3D%2260%22%20as%3D%22sourcePoint%22%2F%3E%3CmxPoint%20x%3D%22180%22%20y%3D%2261%22%20as%3D%22targetPoint%22%2F%3E%3CmxPoint%20as%3D%22offset%22%2F%3E%3C%2FmxGeometry%3E%3C%2FmxCell%3E%3CmxCell%20id%3D%226%22%20value%3D%22%26lt%3Bspan%20style%3D%26quot%3Btext-align%3A%20left%3B%26quot%3B%26gt%3BError%20Message%26lt%3B%2Fspan%26gt%3B%22%20style%3D%22html%3D1%3BverticalAlign%3Dbottom%3BstartArrow%3Doval%3BstartFill%3D1%3BendArrow%3Dblock%3BstartSize%3D8%3Bcurved%3D0%3Brounded%3D0%3B%22%20edge%3D%221%22%20parent%3D%222%22%3E%3CmxGeometry%20x%3D%220.001%22%20width%3D%2260%22%20relative%3D%221%22%20as%3D%22geometry%22%3E%3CmxPoint%20x%3D%22180%22%20y%3D%2260%22%20as%3D%22sourcePoint%22%2F%3E%3CmxPoint%20x%3D%2220%22%20y%3D%2261%22%20as%3D%22targetPoint%22%2F%3E%3CmxPoint%20as%3D%22offset%22%2F%3E%3C%2FmxGeometry%3E%3C%2FmxCell%3E%3CmxCell%20id%3D%227%22%20value%3D%22%26lt%3Bspan%20style%3D%26quot%3Btext-align%3A%20left%3B%26quot%3B%26gt%3BSuccess%26lt%3B%2Fspan%26gt%3B%22%20style%3D%22html%3D1%3BverticalAlign%3Dbottom%3BstartArrow%3Doval%3BstartFill%3D1%3BendArrow%3Dblock%3BstartSize%3D8%3Bcurved%3D0%3Brounded%3D0%3Bdashed%3D1%3B%22%20edge%3D%221%22%20parent%3D%222%22%3E%3CmxGeometry%20x%3D%220.001%22%20width%3D%2260%22%20relative%3D%221%22%20as%3D%22geometry%22%3E%3CmxPoint%20x%3D%22340%22%20y%3D%2280%22%20as%3D%22sourcePoint%22%2F%3E%3CmxPoint%20x%3D%22180%22%20y%3D%2281%22%20as%3D%22targetPoint%22%2F%3E%3CmxPoint%20as%3D%22offset%22%2F%3E%3C%2FmxGeometry%3E%3C%2FmxCell%3E%3C%2Froot%3E%3C%2FmxGraphModel%3E&lt;/span&gt;&lt;span style=&quot;color: rgba(0, 0, 0, 0); font-family: monospace; font-size: 0px; text-align: start; text-wrap-mode: nowrap;&quot;&gt;%3CmxGraphModel%3E%3Croot%3E%3CmxCell%20id%3D%220%22%2F%3E%3CmxCell%20id%3D%221%22%20parent%3D%220%22%2F%3E%3CmxCell%20id%3D%222%22%20value%3D%22%22%20style%3D%22group%3Bmovable%3D0%3Bresizable%3D0%3Brotatable%3D0%3Bdeletable%3D0%3Beditable%3D0%3Blocked%3D1%3Bconnectable%3D0%3B%22%20vertex%3D%221%22%20connectable%3D%220%22%20parent%3D%221%22%3E%3CmxGeometry%20x%3D%22380%22%20y%3D%22320%22%20width%3D%22360%22%20height%3D%22100%22%20as%3D%22geometry%22%2F%3E%3C%2FmxCell%3E%3CmxCell%20id%3D%223%22%20value%3D%22Loop%22%20style%3D%22shape%3DumlFrame%3BwhiteSpace%3Dwrap%3Bhtml%3D1%3BpointerEvents%3D0%3Bdashed%3D1%3B%22%20vertex%3D%221%22%20parent%3D%222%22%3E%3CmxGeometry%20width%3D%22360%22%20height%3D%22100%22%20as%3D%22geometry%22%2F%3E%3C%2FmxCell%3E%3CmxCell%20id%3D%224%22%20value%3D%22%26lt%3Bspan%20style%3D%26quot%3Btext-align%3A%20left%3B%26quot%3B%26gt%3BRequest%20Status%26lt%3B%2Fspan%26gt%3B%22%20style%3D%22html%3D1%3BverticalAlign%3Dbottom%3BstartArrow%3Doval%3BstartFill%3D1%3BendArrow%3Dblock%3BstartSize%3D8%3Bcurved%3D0%3Brounded%3D0%3B%22%20edge%3D%221%22%20parent%3D%222%22%3E%3CmxGeometry%20x%3D%220.001%22%20width%3D%2260%22%20relative%3D%221%22%20as%3D%22geometry%22%3E%3CmxPoint%20x%3D%22180%22%20y%3D%2240.33000000000004%22%20as%3D%22sourcePoint%22%2F%3E%3CmxPoint%20x%3D%22340%22%20y%3D%2239.33000000000004%22%20as%3D%22targetPoint%22%2F%3E%3CmxPoint%20as%3D%22offset%22%2F%3E%3C%2FmxGeometry%3E%3C%2FmxCell%3E%3CmxCell%20id%3D%225%22%20value%3D%22%26lt%3Bspan%20style%3D%26quot%3Btext-align%3A%20left%3B%26quot%3B%26gt%3BFail%26lt%3B%2Fspan%26gt%3B%22%20style%3D%22html%3D1%3BverticalAlign%3Dbottom%3BstartArrow%3Doval%3BstartFill%3D1%3BendArrow%3Dblock%3BstartSize%3D8%3Bcurved%3D0%3Brounded%3D0%3Bdashed%3D1%3B%22%20edge%3D%221%22%20parent%3D%222%22%3E%3CmxGeometry%20x%3D%220.001%22%20width%3D%2260%22%20relative%3D%221%22%20as%3D%22geometry%22%3E%3CmxPoint%20x%3D%22340%22%20y%3D%2260%22%20as%3D%22sourcePoint%22%2F%3E%3CmxPoint%20x%3D%22180%22%20y%3D%2261%22%20as%3D%22targetPoint%22%2F%3E%3CmxPoint%20as%3D%22offset%22%2F%3E%3C%2FmxGeometry%3E%3C%2FmxCell%3E%3CmxCell%20id%3D%226%22%20value%3D%22%26lt%3Bspan%20style%3D%26quot%3Btext-align%3A%20left%3B%26quot%3B%26gt%3BError%20Message%26lt%3B%2Fspan%26gt%3B%22%20style%3D%22html%3D1%3BverticalAlign%3Dbottom%3BstartArrow%3Doval%3BstartFill%3D1%3BendArrow%3Dblock%3BstartSize%3D8%3Bcurved%3D0%3Brounded%3D0%3B%22%20edge%3D%221%22%20parent%3D%222%22%3E%3CmxGeometry%20x%3D%220.001%22%20width%3D%2260%22%20relative%3D%221%22%20as%3D%22geometry%22%3E%3CmxPoint%20x%3D%22180%22%20y%3D%2260%22%20as%3D%22sourcePoint%22%2F%3E%3CmxPoint%20x%3D%2220%22%20y%3D%2261%22%20as%3D%22targetPoint%22%2F%3E%3CmxPoint%20as%3D%22offset%22%2F%3E%3C%2FmxGeometry%3E%3C%2FmxCell%3E%3CmxCell%20id%3D%227%22%20value%3D%22%26lt%3Bspan%20style%3D%26quot%3Btext-align%3A%20left%3B%26quot%3B%26gt%3BSuccess%26lt%3B%2Fspan%26gt%3B%22%20style%3D%22html%3D1%3BverticalAlign%3Dbottom%3BstartArrow%3Doval%3BstartFill%3D1%3BendArrow%3Dblock%3BstartSize%3D8%3Bcurved%3D0%3Brounded%3D0%3Bdashed%3D1%3B%22%20edge%3D%221%22%20parent%3D%222%22%3E%3CmxGeometry%20x%3D%220.001%22%20width%3D%2260%22%20relative%3D%221%22%20as%3D%22geometry%22%3E%3CmxPoint%20x%3D%22340%22%20y%3D%2280%22%20as%3D%22sourcePoint%22%2F%3E%3CmxPoint%20x%3D%22180%22%20y%3D%2281%22%20as%3D%22targetPoint%22%2F%3E%3CmxPoint%20as%3D%22offset%22%2F%3E%3C%2FmxGeometry%3E%3C%2FmxCell%3E%3C%2Froot%3E%3C%2FmxGraphModel%3E&lt;/span&gt;" style="shape=partialRectangle;whiteSpace=wrap;html=1;right=0;top=0;bottom=0;fillColor=none;routingCenterX=-0.5;" vertex="1" parent="1">
          <mxGeometry x="80" y="80" width="120" height="880" as="geometry" />
        </mxCell>
        <mxCell id="jwc7gpU3zESPqbMmV-2L-11" value="" style="shape=partialRectangle;whiteSpace=wrap;html=1;right=0;top=0;bottom=0;fillColor=none;routingCenterX=-0.5;" vertex="1" parent="1">
          <mxGeometry x="240" y="80" width="120" height="880" as="geometry" />
        </mxCell>
        <mxCell id="jwc7gpU3zESPqbMmV-2L-12" value="" style="shape=partialRectangle;whiteSpace=wrap;html=1;right=0;top=0;bottom=0;fillColor=none;routingCenterX=-0.5;" vertex="1" parent="1">
          <mxGeometry x="400" y="80" width="120" height="880" as="geometry" />
        </mxCell>
        <mxCell id="jwc7gpU3zESPqbMmV-2L-13" value="" style="shape=partialRectangle;whiteSpace=wrap;html=1;right=0;top=0;bottom=0;fillColor=none;routingCenterX=-0.5;" vertex="1" parent="1">
          <mxGeometry x="560" y="80" width="120" height="880" as="geometry" />
        </mxCell>
        <mxCell id="jwc7gpU3zESPqbMmV-2L-14" value="" style="shape=partialRectangle;whiteSpace=wrap;html=1;right=0;top=0;bottom=0;fillColor=none;routingCenterX=-0.5;" vertex="1" parent="1">
          <mxGeometry x="720" y="80" width="120" height="880" as="geometry" />
        </mxCell>
        <mxCell id="jwc7gpU3zESPqbMmV-2L-36" value="Provide Employee ID" style="html=1;verticalAlign=bottom;startArrow=oval;startFill=1;endArrow=block;startSize=8;curved=0;rounded=0;" edge="1" parent="1">
          <mxGeometry x="0.001" width="60" relative="1" as="geometry">
            <mxPoint x="80" y="120" as="sourcePoint" />
            <mxPoint x="397" y="120" as="targetPoint" />
            <mxPoint as="offset" />
          </mxGeometry>
        </mxCell>
        <mxCell id="jwc7gpU3zESPqbMmV-2L-37" value="&lt;span style=&quot;text-align: left;&quot;&gt;Generate User ID for the user&lt;/span&gt;" style="html=1;verticalAlign=bottom;startArrow=oval;startFill=1;endArrow=block;startSize=8;curved=0;rounded=0;" edge="1" parent="1">
          <mxGeometry x="0.001" width="60" relative="1" as="geometry">
            <mxPoint x="400" y="141" as="sourcePoint" />
            <mxPoint x="560" y="140" as="targetPoint" />
            <mxPoint as="offset" />
          </mxGeometry>
        </mxCell>
        <mxCell id="jwc7gpU3zESPqbMmV-2L-38" value="&lt;span style=&quot;text-align: left;&quot;&gt;Start Onboarding&lt;/span&gt;" style="html=1;verticalAlign=bottom;startArrow=oval;startFill=1;endArrow=block;startSize=8;curved=0;rounded=0;" edge="1" parent="1">
          <mxGeometry x="0.001" width="60" relative="1" as="geometry">
            <mxPoint x="240" y="181" as="sourcePoint" />
            <mxPoint x="400" y="180" as="targetPoint" />
            <mxPoint as="offset" />
          </mxGeometry>
        </mxCell>
        <mxCell id="jwc7gpU3zESPqbMmV-2L-39" value="&lt;span style=&quot;text-align: left;&quot;&gt;Sign Up&lt;/span&gt;" style="html=1;verticalAlign=bottom;startArrow=oval;startFill=1;endArrow=block;startSize=8;curved=0;rounded=0;" edge="1" parent="1">
          <mxGeometry x="0.001" width="60" relative="1" as="geometry">
            <mxPoint x="400" y="201" as="sourcePoint" />
            <mxPoint x="560" y="200" as="targetPoint" />
            <mxPoint as="offset" />
          </mxGeometry>
        </mxCell>
        <mxCell id="jwc7gpU3zESPqbMmV-2L-40" value="&lt;span style=&quot;text-align: left;&quot;&gt;Initiate Verification&lt;/span&gt;" style="html=1;verticalAlign=bottom;startArrow=oval;startFill=1;endArrow=block;startSize=8;curved=0;rounded=0;" edge="1" parent="1">
          <mxGeometry x="0.001" width="60" relative="1" as="geometry">
            <mxPoint x="560" y="221" as="sourcePoint" />
            <mxPoint x="720" y="220" as="targetPoint" />
            <mxPoint as="offset" />
          </mxGeometry>
        </mxCell>
        <mxCell id="jwc7gpU3zESPqbMmV-2L-41" value="&lt;span style=&quot;text-align: left;&quot;&gt;Return URl&lt;/span&gt;" style="html=1;verticalAlign=bottom;startArrow=oval;startFill=1;endArrow=block;startSize=8;curved=0;rounded=0;" edge="1" parent="1">
          <mxGeometry x="0.001" width="60" relative="1" as="geometry">
            <mxPoint x="720" y="240" as="sourcePoint" />
            <mxPoint x="560" y="241" as="targetPoint" />
            <mxPoint as="offset" />
          </mxGeometry>
        </mxCell>
        <mxCell id="jwc7gpU3zESPqbMmV-2L-43" value="Generate and Display QR&amp;nbsp;&lt;div&gt;containing URl&lt;/div&gt;" style="html=1;align=left;spacingLeft=2;endArrow=block;rounded=0;edgeStyle=orthogonalEdgeStyle;curved=0;rounded=0;" edge="1" parent="1">
          <mxGeometry relative="1" as="geometry">
            <mxPoint x="560" y="260" as="sourcePoint" />
            <Array as="points">
              <mxPoint x="590" y="260" />
              <mxPoint x="590" y="291" />
              <mxPoint x="401" y="291" />
            </Array>
            <mxPoint x="401" y="290" as="targetPoint" />
          </mxGeometry>
        </mxCell>
        <mxCell id="jwc7gpU3zESPqbMmV-2L-53" value="&lt;span style=&quot;text-align: left;&quot;&gt;(If success) Request VP&lt;/span&gt;" style="html=1;verticalAlign=bottom;startArrow=oval;startFill=1;endArrow=block;startSize=8;curved=0;rounded=0;" edge="1" parent="1">
          <mxGeometry x="0.001" width="60" relative="1" as="geometry">
            <mxPoint x="560" y="441" as="sourcePoint" />
            <mxPoint x="720" y="440" as="targetPoint" />
            <mxPoint as="offset" />
          </mxGeometry>
        </mxCell>
        <mxCell id="jwc7gpU3zESPqbMmV-2L-54" value="&lt;span style=&quot;text-align: left;&quot;&gt;Return Name, Surname,&amp;nbsp;&lt;/span&gt;&lt;div&gt;&lt;span style=&quot;text-align: left;&quot;&gt;Employee Email,&amp;nbsp;&lt;/span&gt;&lt;/div&gt;&lt;div&gt;&lt;span style=&quot;text-align: left;&quot;&gt;Employee ID, Issuer ID&lt;/span&gt;&lt;/div&gt;" style="html=1;verticalAlign=bottom;startArrow=oval;startFill=1;endArrow=block;startSize=8;curved=0;rounded=0;dashed=1;" edge="1" parent="1">
          <mxGeometry x="0.001" width="60" relative="1" as="geometry">
            <mxPoint x="720" y="490" as="sourcePoint" />
            <mxPoint x="560" y="491" as="targetPoint" />
            <mxPoint as="offset" />
          </mxGeometry>
        </mxCell>
        <mxCell id="jwc7gpU3zESPqbMmV-2L-56" value="Finish Onboarding and&amp;nbsp;&lt;div&gt;Create LDAP&lt;/div&gt;" style="html=1;align=left;spacingLeft=2;endArrow=block;rounded=0;edgeStyle=orthogonalEdgeStyle;curved=0;rounded=0;" edge="1" parent="1">
          <mxGeometry x="-0.3431" y="9" relative="1" as="geometry">
            <mxPoint x="560" y="519" as="sourcePoint" />
            <Array as="points">
              <mxPoint x="590" y="519" />
              <mxPoint x="590" y="550" />
            </Array>
            <mxPoint x="564" y="550" as="targetPoint" />
            <mxPoint as="offset" />
          </mxGeometry>
        </mxCell>
        <mxCell id="jwc7gpU3zESPqbMmV-2L-57" value="&lt;span style=&quot;text-align: left;&quot;&gt;Start Login Flow&lt;/span&gt;" style="html=1;verticalAlign=bottom;startArrow=oval;startFill=1;endArrow=block;startSize=8;curved=0;rounded=0;" edge="1" parent="1">
          <mxGeometry x="0.001" width="60" relative="1" as="geometry">
            <mxPoint x="240" y="601" as="sourcePoint" />
            <mxPoint x="400" y="600" as="targetPoint" />
            <mxPoint as="offset" />
          </mxGeometry>
        </mxCell>
        <mxCell id="jwc7gpU3zESPqbMmV-2L-58" value="&lt;span style=&quot;text-align: left;&quot;&gt;Login&lt;/span&gt;" style="html=1;verticalAlign=bottom;startArrow=oval;startFill=1;endArrow=block;startSize=8;curved=0;rounded=0;" edge="1" parent="1">
          <mxGeometry x="0.001" width="60" relative="1" as="geometry">
            <mxPoint x="400" y="621" as="sourcePoint" />
            <mxPoint x="560" y="620" as="targetPoint" />
            <mxPoint as="offset" />
          </mxGeometry>
        </mxCell>
        <mxCell id="jwc7gpU3zESPqbMmV-2L-59" value="&lt;span style=&quot;text-align: left;&quot;&gt;Initiate Verification&lt;/span&gt;" style="html=1;verticalAlign=bottom;startArrow=oval;startFill=1;endArrow=block;startSize=8;curved=0;rounded=0;" edge="1" parent="1">
          <mxGeometry x="0.001" width="60" relative="1" as="geometry">
            <mxPoint x="560" y="641" as="sourcePoint" />
            <mxPoint x="720" y="640" as="targetPoint" />
            <mxPoint as="offset" />
          </mxGeometry>
        </mxCell>
        <mxCell id="jwc7gpU3zESPqbMmV-2L-60" value="&lt;span style=&quot;text-align: left;&quot;&gt;Return URl&lt;/span&gt;" style="html=1;verticalAlign=bottom;startArrow=oval;startFill=1;endArrow=block;startSize=8;curved=0;rounded=0;" edge="1" parent="1">
          <mxGeometry x="0.001" width="60" relative="1" as="geometry">
            <mxPoint x="720" y="660" as="sourcePoint" />
            <mxPoint x="560" y="661" as="targetPoint" />
            <mxPoint as="offset" />
          </mxGeometry>
        </mxCell>
        <mxCell id="jwc7gpU3zESPqbMmV-2L-61" value="Generate and Display QR&amp;nbsp;&lt;div&gt;containing URl&lt;/div&gt;" style="html=1;align=left;spacingLeft=2;endArrow=block;rounded=0;edgeStyle=orthogonalEdgeStyle;curved=0;rounded=0;entryX=0.012;entryY=0.328;entryDx=0;entryDy=0;entryPerimeter=0;" edge="1" parent="1">
          <mxGeometry relative="1" as="geometry">
            <mxPoint x="559" y="680" as="sourcePoint" />
            <Array as="points">
              <mxPoint x="589" y="680" />
              <mxPoint x="589" y="711" />
              <mxPoint x="400" y="711" />
            </Array>
            <mxPoint x="400" y="710" as="targetPoint" />
          </mxGeometry>
        </mxCell>
        <mxCell id="jwc7gpU3zESPqbMmV-2L-70" value="" style="group;movable=0;resizable=0;rotatable=0;deletable=0;editable=0;locked=1;connectable=0;" vertex="1" connectable="0" parent="1">
          <mxGeometry x="540" y="320" width="200" height="100" as="geometry" />
        </mxCell>
        <mxCell id="jwc7gpU3zESPqbMmV-2L-47" value="Loop" style="shape=umlFrame;whiteSpace=wrap;html=1;pointerEvents=0;dashed=1;movable=0;resizable=0;rotatable=0;deletable=0;editable=0;locked=1;connectable=0;" vertex="1" parent="jwc7gpU3zESPqbMmV-2L-70">
          <mxGeometry width="200" height="100" as="geometry" />
        </mxCell>
        <mxCell id="jwc7gpU3zESPqbMmV-2L-48" value="&lt;span style=&quot;text-align: left;&quot;&gt;Request Status&lt;/span&gt;" style="html=1;verticalAlign=bottom;startArrow=oval;startFill=1;endArrow=block;startSize=8;curved=0;rounded=0;exitX=-0.01;exitY=0.32;exitDx=0;exitDy=0;exitPerimeter=0;movable=0;resizable=0;rotatable=0;deletable=0;editable=0;locked=1;connectable=0;" edge="1" parent="jwc7gpU3zESPqbMmV-2L-70" source="jwc7gpU3zESPqbMmV-2L-13">
          <mxGeometry x="0.001" width="60" relative="1" as="geometry">
            <mxPoint x="100" y="40.33000000000004" as="sourcePoint" />
            <mxPoint x="180" y="39" as="targetPoint" />
            <mxPoint as="offset" />
          </mxGeometry>
        </mxCell>
        <mxCell id="jwc7gpU3zESPqbMmV-2L-91" value="&lt;span style=&quot;text-align: left;&quot;&gt;Return Fail/Success&lt;/span&gt;" style="html=1;verticalAlign=bottom;startArrow=oval;startFill=1;endArrow=block;startSize=8;curved=0;rounded=0;dashed=1;movable=0;resizable=0;rotatable=0;deletable=0;editable=0;locked=1;connectable=0;" edge="1" parent="jwc7gpU3zESPqbMmV-2L-70">
          <mxGeometry x="0.001" width="60" relative="1" as="geometry">
            <mxPoint x="180" y="80" as="sourcePoint" />
            <mxPoint x="20" y="81" as="targetPoint" />
            <mxPoint as="offset" />
          </mxGeometry>
        </mxCell>
        <mxCell id="jwc7gpU3zESPqbMmV-2L-85" value="&lt;span style=&quot;text-align: left;&quot;&gt;Return Employee I&lt;/span&gt;&lt;span style=&quot;text-align: left; background-color: light-dark(#ffffff, var(--ge-dark-color, #121212)); color: light-dark(rgb(0, 0, 0), rgb(255, 255, 255));&quot;&gt;D&lt;/span&gt;" style="html=1;verticalAlign=bottom;startArrow=oval;startFill=1;endArrow=block;startSize=8;curved=0;rounded=0;dashed=1;" edge="1" parent="1">
          <mxGeometry x="0.001" width="60" relative="1" as="geometry">
            <mxPoint x="720" y="910" as="sourcePoint" />
            <mxPoint x="560" y="911" as="targetPoint" />
            <mxPoint as="offset" />
          </mxGeometry>
        </mxCell>
        <mxCell id="jwc7gpU3zESPqbMmV-2L-86" value="&lt;span style=&quot;text-align: left;&quot;&gt;(If success) Request VP&amp;nbsp;&lt;/span&gt;&lt;div&gt;&lt;span style=&quot;text-align: left;&quot;&gt;providing Employee ID&lt;/span&gt;&lt;/div&gt;" style="html=1;verticalAlign=bottom;startArrow=oval;startFill=1;endArrow=block;startSize=8;curved=0;rounded=0;" edge="1" parent="1">
          <mxGeometry x="0.001" width="60" relative="1" as="geometry">
            <mxPoint x="560" y="881" as="sourcePoint" />
            <mxPoint x="720" y="880" as="targetPoint" />
            <mxPoint as="offset" />
          </mxGeometry>
        </mxCell>
        <mxCell id="jwc7gpU3zESPqbMmV-2L-87" value="&lt;span style=&quot;text-align: left;&quot;&gt;Redirect Main Page&lt;/span&gt;" style="html=1;verticalAlign=bottom;startArrow=oval;startFill=1;endArrow=block;startSize=8;curved=0;rounded=0;" edge="1" parent="1">
          <mxGeometry x="0.001" width="60" relative="1" as="geometry">
            <mxPoint x="560" y="940" as="sourcePoint" />
            <mxPoint x="400" y="941" as="targetPoint" />
            <mxPoint as="offset" />
          </mxGeometry>
        </mxCell>
        <mxCell id="jwc7gpU3zESPqbMmV-2L-88" value="&lt;span style=&quot;text-align: left;&quot;&gt;(If fail) Error Message&lt;/span&gt;" style="html=1;verticalAlign=bottom;startArrow=oval;startFill=1;endArrow=block;startSize=8;curved=0;rounded=0;movable=0;resizable=0;rotatable=0;deletable=0;editable=0;locked=1;connectable=0;" edge="1" parent="1">
          <mxGeometry x="0.001" width="60" relative="1" as="geometry">
            <mxPoint x="540" y="380" as="sourcePoint" />
            <mxPoint x="403" y="380" as="targetPoint" />
            <mxPoint as="offset" />
          </mxGeometry>
        </mxCell>
        <mxCell id="jwc7gpU3zESPqbMmV-2L-93" value="" style="group;movable=1;resizable=1;rotatable=1;deletable=1;editable=1;locked=0;connectable=1;" vertex="1" connectable="0" parent="1">
          <mxGeometry x="540" y="740" width="200" height="100" as="geometry" />
        </mxCell>
        <mxCell id="jwc7gpU3zESPqbMmV-2L-94" value="Loop" style="shape=umlFrame;whiteSpace=wrap;html=1;pointerEvents=0;dashed=1;" vertex="1" parent="jwc7gpU3zESPqbMmV-2L-93">
          <mxGeometry width="200" height="100" as="geometry" />
        </mxCell>
        <mxCell id="jwc7gpU3zESPqbMmV-2L-95" value="&lt;span style=&quot;text-align: left;&quot;&gt;Request Status&lt;/span&gt;" style="html=1;verticalAlign=bottom;startArrow=oval;startFill=1;endArrow=block;startSize=8;curved=0;rounded=0;exitX=-0.002;exitY=0.795;exitDx=0;exitDy=0;exitPerimeter=0;" edge="1" parent="jwc7gpU3zESPqbMmV-2L-93" source="jwc7gpU3zESPqbMmV-2L-13">
          <mxGeometry x="0.001" width="60" relative="1" as="geometry">
            <mxPoint x="100" y="40.33000000000004" as="sourcePoint" />
            <mxPoint x="180" y="39" as="targetPoint" />
            <mxPoint as="offset" />
          </mxGeometry>
        </mxCell>
        <mxCell id="jwc7gpU3zESPqbMmV-2L-96" value="&lt;span style=&quot;text-align: left;&quot;&gt;Return Fail/Success&lt;/span&gt;" style="html=1;verticalAlign=bottom;startArrow=oval;startFill=1;endArrow=block;startSize=8;curved=0;rounded=0;dashed=1;" edge="1" parent="jwc7gpU3zESPqbMmV-2L-93">
          <mxGeometry x="0.001" width="60" relative="1" as="geometry">
            <mxPoint x="180" y="80" as="sourcePoint" />
            <mxPoint x="20" y="81" as="targetPoint" />
            <mxPoint as="offset" />
          </mxGeometry>
        </mxCell>
        <mxCell id="jwc7gpU3zESPqbMmV-2L-97" value="&lt;span style=&quot;text-align: left;&quot;&gt;(If fail) Verification Fails&lt;/span&gt;" style="html=1;verticalAlign=bottom;startArrow=oval;startFill=1;endArrow=block;startSize=8;curved=0;rounded=0;" edge="1" parent="1">
          <mxGeometry x="0.001" width="60" relative="1" as="geometry">
            <mxPoint x="537" y="789.29" as="sourcePoint" />
            <mxPoint x="400" y="789.29" as="targetPoint" />
            <mxPoint as="offset" />
          </mxGeometry>
        </mxCell>
      </root>
    </mxGraphModel>
  </diagram>
</mxfile>
